[Header]
FileType HTR
DataType HTRS
FileVersion 1
NumSegments 64
NumFrames 3
DataFrameRate 24
EulerRotationOrder ZYX
CalibrationUnits mm
RotationUnits Degrees
GlobalAxisofGravity Y
BoneLengthAxis Y
ScaleFactor 1.0
[SegmentNames&Hierarchy]
Hips	GLOBAL
Spine	Hips
Spine1	Spine
Spine2	Spine1
Neck	Spine2
Head	Neck
LeftEye	Head
RightEye	Head
LeftShoulder	Spine2
LeftArm	LeftShoulder
LeftForeArm	LeftArm
LeftHand	LeftForeArm
LeftHandThumb1	LeftHand
LeftHandThumb2	LeftHandThumb1
LeftHandThumb3	LeftHandThumb2
LeftHandThumb4	LeftHandThumb3
LeftHandIndex1	LeftHand
LeftHandIndex2	LeftHandIndex1
LeftHandIndex3	LeftHandIndex2
LeftHandIndex4	LeftHandIndex3
LeftHandMiddle1	LeftHand
LeftHandMiddle2	LeftHandMiddle1
LeftHandMiddle3	LeftHandMiddle2
LeftHandMiddle4	LeftHandMiddle3
LeftHandRing1	LeftHand
LeftHandRing2	LeftHandRing1
LeftHandRing3	LeftHandRing2
LeftHandRing4	LeftHandRing3
LeftHandPinky1	LeftHand
LeftHandPinky2	LeftHandPinky1
LeftHandPinky3	LeftHandPinky2
LeftHandPinky4	LeftHandPinky3
RightShoulder	Spine2
RightArm	RightShoulder
RightForeArm	RightArm
RightHand	RightForeArm
RightHandPinky1	RightHand
RightHandPinky2	RightHandPinky1
RightHandPinky3	RightHandPinky2
RightHandPinky4	RightHandPinky3
RightHandRing1	RightHand
RightHandRing2	RightHandRing1
RightHandRing3	RightHandRing2
RightHandRing4	RightHandRing3
RightHandMiddle1	RightHand
RightHandMiddle2	RightHandMiddle1
RightHandMiddle3	RightHandMiddle2
RightHandMiddle4	RightHandMiddle3
RightHandIndex1	RightHand
RightHandIndex2	RightHandIndex1
RightHandIndex3	RightHandIndex2
RightHandIndex4	RightHandIndex3
RightHandThumb1	RightHand
RightHandThumb2	RightHandThumb1
RightHandThumb3	RightHandThumb2
RightHandThumb4	RightHandThumb3
LeftUpLeg	Hips
LeftLeg	LeftUpLeg
LeftFoot	LeftLeg
LeftToeBase	LeftFoot
RightUpLeg	Hips
RightLeg	RightUpLeg
RightFoot	RightLeg
RightToeBase	RightFoot
[BasePosition]
Hips	0	0	0	0	0	0	1
Spine	0	0	0	0	0	0	1
Spine1	0	0	0	0	0	0	1
Spine2	0	0	0	0	0	0	1
Neck	0	0	0	0	0	0	1
Head	0	0	0	0	0	0	1
LeftEye	0	0	0	0	0	0	1
RightEye	0	0	0	0	0	0	1
LeftShoulder	0	0	0	0	0	0	1
LeftArm	0	0	0	0	0	0	1
LeftForeArm	0	0	0	0	0	0	1
LeftHand	0	0	0	0	0	0	1
LeftHandThumb1	0	0	0	0	0	0	1
LeftHandThumb2	0	0	0	0	0	0	1
LeftHandThumb3	0	0	0	0	0	0	1
LeftHandThumb4	0	0	0	0	0	0	1
LeftHandIndex1	0	0	0	0	0	0	1
LeftHandIndex2	0	0	0	0	0	0	1
LeftHandIndex3	0	0	0	0	0	0	1
LeftHandIndex4	0	0	0	0	0	0	1
LeftHandMiddle1	0	0	0	0	0	0	1
LeftHandMiddle2	0	0	0	0	0	0	1
LeftHandMiddle3	0	0	0	0	0	0	1
LeftHandMiddle4	0	0	0	0	0	0	1
LeftHandRing1	0	0	0	0	0	0	1
LeftHandRing2	0	0	0	0	0	0	1
LeftHandRing3	0	0	0	0	0	0	1
LeftHandRing4	0	0	0	0	0	0	1
LeftHandPinky1	0	0	0	0	0	0	1
LeftHandPinky2	0	0	0	0	0	0	1
LeftHandPinky3	0	0	0	0	0	0	1
LeftHandPinky4	0	0	0	0	0	0	1
RightShoulder	0	0	0	0	0	0	1
RightArm	0	0	0	0	0	0	1
RightForeArm	0	0	0	0	0	0	1
RightHand	0	0	0	0	0	0	1
RightHandPinky1	0	0	0	0	0	0	1
RightHandPinky2	0	0	0	0	0	0	1
RightHandPinky3	0	0	0	0	0	0	1
RightHandPinky4	0	0	0	0	0	0	1
RightHandRing1	0	0	0	0	0	0	1
RightHandRing2	0	0	0	0	0	0	1
RightHandRing3	0	0	0	0	0	0	1
RightHandRing4	0	0	0	0	0	0	1
RightHandMiddle1	0	0	0	0	0	0	1
RightHandMiddle2	0	0	0	0	0	0	1
RightHandMiddle3	0	0	0	0	0	0	1
RightHandMiddle4	0	0	0	0	0	0	1
RightHandIndex1	0	0	0	0	0	0	1
RightHandIndex2	0	0	0	0	0	0	1
RightHandIndex3	0	0	0	0	0	0	1
RightHandIndex4	0	0	0	0	0	0	1
RightHandThumb1	0	0	0	0	0	0	1
RightHandThumb2	0	0	0	0	0	0	1
RightHandThumb3	0	0	0	0	0	0	1
RightHandThumb4	0	0	0	0	0	0	1
LeftUpLeg	0	0	0	0	0	0	1
LeftLeg	0	0	0	0	0	0	1
LeftFoot	0	0	0	0	0	0	1
LeftToeBase	0	0	0	0	0	0	1
RightUpLeg	0	0	0	0	0	0	1
RightLeg	0	0	0	0	0	0	1
RightFoot	0	0	0	0	0	0	1
RightToeBase	0	0	0	0	0	0	1
[Hips]
12	-809.9213867	988.1912842	8.629157066	-2.144274473	-66.7070694	9.862732887	1.0
13	-872.8991699	1004.929077	11.69428444	1.60098815	-66.22781372	6.306306839	1.0
14	-936.4655762	1015.032715	15.54711533	3.8967731	-65.82037354	4.247035027	1.0
[Spine]
12	0	101.8159943	1.315000057	5.910224438	8.497820854	-3.692412376	1.0
13	0	101.8159943	1.315000057	5.944158554	7.53519392	-1.869232893	1.0
14	0	101.8159943	1.315000057	5.89026165	6.607909679	-0.6926988959	1.0
[Spine1]
12	0	100.8349991	-10.00800037	4.18113327	5.70113945	-1.610013843	1.0
13	0	100.8349991	-10.00800037	4.247439861	5.144214153	-0.9689283967	1.0
14	0	100.8349991	-10.00800037	4.237731934	4.683198929	-0.5030412078	1.0
[Spine2]
12	0	91	-13.73399925	4.157001972	5.720419407	-1.596103072	1.0
13	0	91	-13.73399925	4.226128578	5.16740799	-0.9479389191	1.0
14	0	91	-13.73399925	4.21970892	4.705904007	-0.477064997	1.0
[Neck]
12	0	166.7169952	-25.16200066	4.868855476	5.85890913	0.9542635083	1.0
13	0	166.7169952	-25.16200066	4.879815578	5.933825493	0.9281690717	1.0
14	0	166.7169952	-25.16200066	4.740196705	6.005139351	0.9565197229	1.0
[Head]
12	0	96.17900085	16.84999847	-11.78907776	33.81348801	-11.29021358	1.0
13	0	96.17900085	16.84999847	-11.60938072	34.11527634	-11.65353394	1.0
14	0	96.17900085	16.84999847	-11.8027916	34.39133072	-12.1600771	1.0
[LeftEye]
12	30.6760006	64.09500122	92.83599854	0	0	0	1.0
13	30.6760006	64.09500122	92.83599854	0	0	0	1.0
14	30.6760006	64.09500122	92.83599854	0	0	0	1.0
[RightEye]
12	-30.6760006	64.09500122	92.83499908	0	0	0	1.0
13	-30.6760006	64.09500122	92.83499908	0	0	0	1.0
14	-30.6760006	64.09500122	92.83499908	0	0	0	1.0
[LeftShoulder]
12	45.70400238	109.4599991	-26.28000069	0.4349892735	2.029539347	-9.741021156	1.0
13	45.70400238	109.4599991	-26.28000069	0.3261575699	1.257945776	-9.6599226	1.0
14	45.70400238	109.4599991	-26.28000069	0.2312693298	0.4153065383	-9.556665421	1.0
[LeftArm]
12	105.923996	-5.24600029	-22.32099915	15.9565258	-6.158771038	-64.31344604	1.0
13	105.923996	-5.24600029	-22.32099915	16.98247719	-7.646911621	-65.4756546	1.0
14	105.923996	-5.24600029	-22.32099915	17.77921677	-9.076458931	-66.15478516	1.0
[LeftForeArm]
12	278.414978	-0.0009999999311	0	-4.817573881e-06	-9.478304863	-0.000197881207	1.0
13	278.414978	-0.0009999999311	0	-5.117404726e-06	-11.96861649	-0.0002057833481	1.0
14	278.414978	-0.0009999999311	0	-5.014022008e-06	-14.70828819	-0.0002136260155	1.0
[LeftHand]
12	283.2879944	0	0	4.393657207	-5.880196571	-1.793311954	1.0
13	283.2879944	0	0	4.696886063	-7.081578255	-3.017009258	1.0
14	283.2879944	0	0	5.165613174	-8.013382912	-3.684764147	1.0
[LeftHandThumb1]
12	24.6609993	-15.75	26.8239994	30.58115005	-20.32058144	11.29641056	1.0
13	24.6609993	-15.75	26.8239994	30.58115005	-20.32058144	11.29641056	1.0
14	24.6609993	-15.75	26.8239994	30.58115005	-20.32058144	11.29641056	1.0
[LeftHandThumb2]
12	32.29800034	-18.64699936	18.64699936	10.92567825	19.8267231	-2.157892466	1.0
13	32.29800034	-18.64699936	18.64699936	10.26628113	20.44399643	-1.85482645	1.0
14	32.29800034	-18.64699936	18.64699936	10.20706558	20.74738884	-1.80431807	1.0
[LeftHandThumb3]
12	26.52600098	-15.31499958	15.31499958	-15.11994934	8.085567474	10.01751137	1.0
13	26.52600098	-15.31499958	15.31499958	-15.09162712	8.152054787	9.99732399	1.0
14	26.52600098	-15.31499958	15.31499958	-15.08748531	8.16174221	9.994326591	1.0
[LeftHandThumb4]
12	19.54599953	-11.28499985	11.28499985	0	0	0	1.0
13	19.54599953	-11.28499985	11.28499985	0	0	0	1.0
14	19.54599953	-11.28499985	11.28499985	0	0	0	1.0
[LeftHandIndex1]
12	91.09299469	-5.170999527	22.60099792	-1.384778976	-6.388338089	-24.76267815	1.0
13	91.09299469	-5.170999527	22.60099792	-1.291119695	-6.360232353	-23.64618874	1.0
14	91.09299469	-5.170999527	22.60099792	-1.284572959	-6.264988899	-23.58840561	1.0
[LeftHandIndex2]
12	36.76399994	0	0	-0.71223557	2.794872761	-28.58860016	1.0
13	36.76399994	0	0	-0.7167782784	2.803164005	-28.68135834	1.0
14	36.76399994	0	0	-0.7203902006	2.809760094	-28.75512886	1.0
[LeftHandIndex3]
12	28.83100128	0	0	-0.2921252251	1.824396849	-18.19274139	1.0
13	28.83100128	0	0	-0.2951145768	1.8334378	-18.28621292	1.0
14	28.83100128	0	0	-0.297491163	1.840626955	-18.36053848	1.0
[LeftHandIndex4]
12	23.92700005	0	0	0	0	0	1.0
13	23.92700005	0	0	0	0	0	1.0
14	23.92700005	0	0	0	0	0	1.0
[LeftHandMiddle1]
12	95.33399963	0	0	-2.600582838	1.901699066	-37.69254303	1.0
13	95.33399963	0	0	-2.564216614	1.834028363	-37.31390381	1.0
14	95.33399963	0	0	-2.564116716	1.827374697	-37.31171799	1.0
[LeftHandMiddle2]
12	36.98199844	0	0	-0.5498295426	2.473994732	-25.05611992	1.0
13	36.98199844	0	0	-0.5482999682	2.470707893	-25.02052307	1.0
14	36.98199844	0	0	-0.5483167768	2.470734358	-25.02077484	1.0
[LeftHandMiddle3]
12	29.50900078	0	0	-0.3829850852	2.080473661	-20.85927963	1.0
13	29.50900078	0	0	-0.3816791475	2.077049017	-20.82333755	1.0
14	29.50900078	0	0	-0.3816943765	2.07707262	-20.82362938	1.0
[LeftHandMiddle4]
12	28.3390007	0	0	0	0	0	1.0
13	28.3390007	0	0	0	0	0	1.0
14	28.3390007	0	0	0	0	0	1.0
[LeftHandRing1]
12	91.04499817	-0.4390000105	-18.65100098	-2.214254379	3.37520504	-33.49915695	1.0
13	91.04499817	-0.4390000105	-18.65100098	-2.2017169	3.448533297	-33.36211777	1.0
14	91.04499817	-0.4390000105	-18.65100098	-2.2259202	3.39899087	-33.6268158	1.0
[LeftHandRing2]
12	31.54000092	0	0	-0.8877628446	3.094920874	-32.00409317	1.0
13	31.54000092	0	0	-0.8895128965	3.097712994	-32.03642654	1.0
14	31.54000092	0	0	-0.8880384564	3.09533143	-32.00888443	1.0
[LeftHandRing3]
12	29.37700081	0	0	-0.9862283468	3.246902943	-33.78396606	1.0
13	29.37700081	0	0	-0.9880856276	3.249699593	-33.81687927	1.0
14	29.37700081	0	0	-0.9865014553	3.247336388	-33.78886414	1.0
[LeftHandRing4]
12	26.47500038	0	0	0	0	0	1.0
13	26.47500038	0	0	0	0	0	1.0
14	26.47500038	0	0	0	0	0	1.0
[LeftHandPinky1]
12	80.77799988	-4.887000084	-38.06099701	-1.962816358	2.886549711	-30.51949883	1.0
13	80.77799988	-4.887000084	-38.06099701	-1.945282698	3.142672539	-30.31019974	1.0
14	80.77799988	-4.887000084	-38.06099701	-1.94293952	3.064497232	-30.28632736	1.0
[LeftHandPinky2]
12	36	0	0	-0.4774235487	2.312944651	-23.32247543	1.0
13	36	0	0	-0.471157968	2.298395157	-23.16699219	1.0
14	36	0	0	-0.4690758586	2.293514967	-23.11487389	1.0
[LeftHandPinky3]
12	21.14200211	0	0	-0.5478659272	2.469823837	-25.01070023	1.0
13	21.14200211	0	0	-0.5402187109	2.453371048	-24.83258438	1.0
14	21.14200211	0	0	-0.5365293026	2.4454	-24.74635506	1.0
[LeftHandPinky4]
12	19.75699997	0	0	0	0	0	1.0
13	19.75699997	0	0	0	0	0	1.0
14	19.75699997	0	0	0	0	0	1.0
[RightShoulder]
12	-45.70000076	109.4620056	-26.28000069	1.561407208	8.277499199	9.893980026	1.0
13	-45.70000076	109.4620056	-26.28000069	1.855330706	7.683254242	9.901063919	1.0
14	-45.70000076	109.4620056	-26.28000069	2.048256397	7.023096085	9.925812721	1.0
[RightArm]
12	-105.9280014	-5.248000145	-22.32099915	34.42969131	26.08460999	61.23937607	1.0
13	-105.9280014	-5.248000145	-22.32099915	32.55395126	22.37871552	58.48332596	1.0
14	-105.9280014	-5.248000145	-22.32099915	30.67671585	17.98830032	56.13928986	1.0
[RightForeArm]
12	-278.414978	0	0	1.212798338e-06	14.31702614	1.242939106e-05	1.0
13	-278.414978	0	0	1.948316367e-06	15.79168701	1.75006835e-06	1.0
14	-278.414978	0	0	2.271718131e-06	17.76239395	-6.731365829e-06	1.0
[RightHand]
12	-283.2879944	0	0.0009999999311	0.2807514369	0.7024119496	-4.201245308	1.0
13	-283.2879944	0	0.0009999999311	-0.1954421997	1.980664492	-3.690656662	1.0
14	-283.2879944	0	0.0009999999311	-1.475338578	3.20020318	-3.453706503	1.0
[RightHandPinky1]
12	-80.76699829	-4.885000229	-38.06000137	-2.19674015	-4.504836559	36.13940048	1.0
13	-80.76699829	-4.885000229	-38.06000137	-2.174665451	-4.325353146	35.84754944	1.0
14	-80.76699829	-4.885000229	-38.06000137	-2.156737804	-4.151191235	35.60882187	1.0
[RightHandPinky2]
12	-36	0	0.0009999999311	-0.398784399	-1.881639838	23.94937325	1.0
13	-36	0	0.0009999999311	-0.4033997655	-1.89198947	24.08944321	1.0
14	-36	0	0.0009999999311	-0.406080693	-1.89798975	24.17069817	1.0
[RightHandPinky3]
12	-21.14200211	0	0	-0.1751377285	-1.262737513	15.79220009	1.0
13	-21.14200211	0	0	-0.1783931851	-1.274165273	15.93897057	1.0
14	-21.14200211	0	0	-0.1802938581	-1.280820489	16.02445984	1.0
[RightHandPinky4]
12	-19.75699997	0	0	0	0	0	1.0
13	-19.75699997	0	0	0	0	0	1.0
14	-19.75699997	0	0	0	0	0	1.0
[RightHandRing1]
12	-91.03599548	-0.4390000105	-18.65100098	-1.891248107	-6.492713451	32.28287888	1.0
13	-91.03599548	-0.4390000105	-18.65100098	-1.876433611	-6.445933342	32.0898819	1.0
14	-91.03599548	-0.4390000105	-18.65100098	-1.864034653	-6.415046215	31.92856789	1.0
[RightHandRing2]
12	-31.54000092	0	0	-0.3728728294	-1.822158933	23.12796211	1.0
13	-31.54000092	0	0	-0.3771541417	-1.832128406	23.26204491	1.0
14	-31.54000092	0	0	-0.3800959587	-1.838972569	23.35410309	1.0
[RightHandRing3]
12	-29.37700081	0	0	-0.2679619193	-1.553853869	19.56762314	1.0
13	-29.37700081	0	0	-0.2716584206	-1.564190269	19.7032547	1.0
14	-29.37700081	0	0	-0.2741983831	-1.571284652	19.79635811	1.0
[RightHandRing4]
12	-26.47500038	0	0	0	0	0	1.0
13	-26.47500038	0	0	0	0	0	1.0
14	-26.47500038	0	0	0	0	0	1.0
[RightHandMiddle1]
12	-95.32500458	0	0	-1.78395319	-3.0033319	30.86908913	1.0
13	-95.32500458	0	0	-1.770432234	-2.593846798	30.69873047	1.0
14	-95.32500458	0	0	-1.757106423	-2.319820642	30.52869606	1.0
[RightHandMiddle2]
12	-36.98199844	0	0	-0.2416796684	-1.477860332	18.5742054	1.0
13	-36.98199844	0	0	-0.24041982	-1.474102497	18.52521896	1.0
14	-36.98199844	0	0	-0.2394395769	-1.471178174	18.48709488	1.0
[RightHandMiddle3]
12	-29.50900078	0	0	-0.08711304516	-0.8969298601	11.11959743	1.0
13	-29.50900078	0	0	-0.08635117114	-0.8930372596	11.07061386	1.0
14	-29.50900078	0	0	-0.08575838059	-0.8900085688	11.03249741	1.0
[RightHandMiddle4]
12	-28.3390007	0	0.0009999999311	0	0	0	1.0
13	-28.3390007	0	0.0009999999311	0	0	0	1.0
14	-28.3390007	0	0.0009999999311	0	0	0	1.0
[RightHandIndex1]
12	-91.08300018	-5.167999744	22.60099792	-1.317097783	1.569713473	24.82363701	1.0
13	-91.08300018	-5.167999744	22.60099792	-1.291346312	1.959728003	24.3690052	1.0
14	-91.08300018	-5.167999744	22.60099792	-1.265040994	2.2315557	24.00904655	1.0
[RightHandIndex2]
12	-36.76399994	0	0	-0.1020521447	-0.967823863	12.03877258	1.0
13	-36.76399994	0	0	-0.1018803269	-0.9670020342	12.02841854	1.0
14	-36.76399994	0	0	-0.1017882749	-0.9665540457	12.02279377	1.0
[RightHandIndex3]
12	-28.83100128	0	0	-0.1061843857	-0.9869868755	12.28091335	1.0
13	-28.83100128	0	0	-0.106005542	-0.9861633182	12.27051163	1.0
14	-28.83100128	0	0	-0.1059091017	-0.9857159257	12.26486206	1.0
[RightHandIndex4]
12	-23.92700005	0	0	0	0	0	1.0
13	-23.92700005	0	0	0	0	0	1.0
14	-23.92700005	0	0	0	0	0	1.0
[RightHandThumb1]
12	-24.64799881	-15.72700024	26.82600021	-0.1902875453	0.8218618631	0.3671384752	1.0
13	-24.64799881	-15.72700024	26.82600021	-0.1902875453	0.8218618631	0.3671384752	1.0
14	-24.64799881	-15.72700024	26.82600021	-0.1902875453	0.8218618631	0.3671384752	1.0
[RightHandThumb2]
12	-32.29800034	-18.64699936	18.64699936	16.66257095	-3.249989271	-18.88635635	1.0
13	-32.29800034	-18.64699936	18.64699936	15.35545254	-3.669216156	-19.40871429	1.0
14	-32.29800034	-18.64699936	18.64699936	14.36762333	-3.77524972	-19.7031765	1.0
[RightHandThumb3]
12	-26.52600098	-15.31399918	15.31399918	-0.09110602736	7.768118858	-23.97376823	1.0
13	-26.52600098	-15.31399918	15.31399918	0.2976691723	6.85192585	-23.84076881	1.0
14	-26.52600098	-15.31399918	15.31399918	0.5952472091	6.157567978	-23.71216965	1.0
[RightHandThumb4]
12	-19.54599953	-11.28499985	11.28499985	0	0	0	1.0
13	-19.54599953	-11.28499985	11.28499985	0	0	0	1.0
14	-19.54599953	-11.28499985	11.28499985	0	0	0	1.0
[LeftUpLeg]
12	82.07800293	-67.51699829	-15.99599934	-30.0675869	3.36989212	-5.791098595	1.0
13	82.07800293	-67.51699829	-15.99599934	-23.79572296	5.653630257	-2.901440144	1.0
14	82.07800293	-67.51699829	-15.99599934	-17.90347481	7.475400925	-0.2985742688	1.0
[LeftLeg]
12	0	-443.7049866	2.845999956	31.98846817	-5.205070019	-3.118497133	1.0
13	0	-443.7049866	2.845999956	26.37589264	-6.715658665	-3.439964294	1.0
14	0	-443.7049866	2.845999956	21.6181736	-7.763720512	-3.445201397	1.0
[LeftFoot]
12	0	-444.2789917	-29.8219986	-8.595244408	-2.015182495	2.599404335	1.0
13	0	-444.2789917	-29.8219986	-9.707774162	-3.31862402	1.58125639	1.0
14	0	-444.2789917	-29.8219986	-11.24713612	-4.686467171	0.4699889123	1.0
[LeftToeBase]
12	0	-87.28699493	107.1060028	-5.380861759	-2.912468153e-05	-4.791217521e-07	1.0
13	0	-87.28699493	107.1060028	-5.382544994	-3.071364335e-05	1.811858539e-07	1.0
14	0	-87.28699493	107.1060028	-5.384545326	-2.592591773e-05	5.247184163e-07	1.0
[RightUpLeg]
12	-82.07800293	-67.51699829	-15.99599934	-27.17877769	-15.1517868	-0.7999368906	1.0
13	-82.07800293	-67.51699829	-15.99599934	-32.52624893	-14.39614201	-0.6238507032	1.0
14	-82.07800293	-67.51699829	-15.99599934	-36.06375504	-13.63706684	-1.601288557	1.0
[RightLeg]
12	0	-443.7049866	2.861999989	66.98234558	1.437106609	4.288030624	1.0
13	0	-443.7049866	2.861999989	56.7569046	1.060283303	2.375320196	1.0
14	0	-443.7049866	2.861999989	43.6223259	0.9790886045	1.284724116	1.0
[RightFoot]
12	0	-444.2770081	-29.83799934	-1.357330918	0.1921236515	-1.385909796	1.0
13	0	-444.2770081	-29.83799934	-3.069172859	-0.1061125472	-0.441368103	1.0
14	0	-444.2770081	-29.83799934	-4.197190285	-0.1792750508	1.857434392	1.0
[RightToeBase]
12	0	-87.28699493	107.1060028	-9.010931015	-1.524125037e-05	8.282927411e-06	1.0
13	0	-87.28699493	107.1060028	-8.313570976	-1.249851721e-06	3.08567337e-06	1.0
14	0	-87.28699493	107.1060028	-7.428304195	1.912168773e-05	-1.648364218e-06	1.0
[EndOfFile]
